<svg xmlns="http://www.w3.org/2000/svg" width="21" height="20" fill="none" xmlns:v="https://vecta.io/nano"><path d="M18.44 11c-.22 0-.45-.07-.67-.12a9.44 9.44 0 0 1-1.31-.39 2 2 0 0 0-2.48 1l-.22.45a12.18 12.18 0 0 1-2.66-2 12.18 12.18 0 0 1-2-2.66L9.52 7a2 2 0 0 0 1-2.48 10.32 10.32 0 0 1-.39-1.31l-.12-.68a3 3 0 0 0-3-2.49h-3a3 3 0 0 0-2.281 1.018A3 3 0 0 0 1.01 3.45a19 19 0 0 0 16.52 16.46h.38a3 3 0 0 0 2.741-1.778 3 3 0 0 0 .259-1.232v-3a3 3 0 0 0-2.47-2.9zm.5 6a1 1 0 0 1-.34.75 1.06 1.06 0 0 1-.82.25A17 17 0 0 1 3.07 3.22a1.09 1.09 0 0 1 .25-.82 1 1 0 0 1 .75-.34h3a1 1 0 0 1 1 .79 10.84 10.84 0 0 0 .15.81 11.12 11.12 0 0 0 .46 1.55l-1.4.65a1 1 0 0 0-.521.563 1 1 0 0 0 .031.767 14.49 14.49 0 0 0 7 7 1 1 0 0 0 .76 0 1 1 0 0 0 .57-.52l.62-1.4a13.68 13.68 0 0 0 1.58.46l.81.15a1 1 0 0 1 .79 1l.02 3.12z" fill="#050510"/></svg>