<svg xmlns="http://www.w3.org/2000/svg" width="21" height="12" fill="none" xmlns:v="https://vecta.io/nano"><path d="M1.5 0a1 1 0 0 0-.924.617 1 1 0 0 0 .217 1.09 1 1 0 0 0 1.09.217A1 1 0 0 0 2.5 1a1 1 0 0 0-1-1zm4 2h14a1 1 0 0 0 1-1 1 1 0 0 0-.293-.707A1 1 0 0 0 19.5 0h-14a1 1 0 0 0-1 1 1 1 0 0 0 1 1zm0 3a1 1 0 0 0-.924.617 1 1 0 0 0 .217 1.09 1 1 0 0 0 1.09.217A1 1 0 0 0 6.5 6a1 1 0 0 0-1-1zm4 5a1 1 0 0 0-.924.617 1 1 0 0 0 .217 1.09 1 1 0 0 0 1.09.217A1 1 0 0 0 10.5 11a1 1 0 0 0-1-1zm10-5h-10a1 1 0 0 0-1 1 1 1 0 0 0 1 1h10a1 1 0 0 0 1-1 1 1 0 0 0-1-1zm0 5h-6a1 1 0 0 0-1 1 1 1 0 0 0 1 1h6a1 1 0 0 0 1-1 1 1 0 0 0-1-1z" fill="#c3c3c6"/></svg>